<?xml version="1.0" standalone="no"?>
<!DOCTYPE svg PUBLIC "-//W3C//DTD SVG 20010904//EN"
 "http://www.w3.org/TR/2001/REC-SVG-20010904/DTD/svg10.dtd">
<svg version="1.0" xmlns="http://www.w3.org/2000/svg"
 width="225.000000pt" height="225.000000pt" viewBox="0 0 225.000000 225.000000"
 preserveAspectRatio="xMidYMid meet">

<g transform="translate(0.000000,225.000000) scale(0.100000,-0.100000)"
fill="#000000" stroke="none">
<path d="M455 2176 c-60 -28 -87 -56 -114 -116 -26 -57 -26 -132 -2 -187 17
-37 18 -45 5 -81 -16 -49 -34 -153 -34 -207 0 -37 -4 -42 -52 -70 -28 -16 -82
-60 -119 -97 -142 -141 -174 -301 -92 -467 31 -65 136 -172 211 -216 48 -28
52 -33 52 -70 0 -54 18 -158 34 -207 13 -36 12 -44 -5 -81 -35 -79 -16 -190
44 -256 33 -36 115 -71 167 -71 79 0 121 18 176 74 41 43 61 55 114 69 35 10
95 34 132 53 l69 34 57 -29 c137 -69 291 -90 400 -55 153 50 256 209 269 417
l6 87 66 45 c36 24 88 66 116 94 38 40 56 51 80 51 44 0 131 46 161 86 91 119
55 290 -75 357 -30 15 -69 27 -86 27 -24 0 -42 11 -80 51 -28 28 -80 71 -117
95 l-68 46 0 56 c-1 125 -46 259 -116 341 -71 83 -159 122 -274 122 -98 0
-156 -13 -257 -61 l-82 -38 -67 33 c-36 18 -96 41 -132 51 -56 15 -73 25 -107
62 -73 83 -180 105 -280 58z m145 -131 c59 -30 68 -98 21 -146 -48 -47 -117
-34 -146 28 -17 36 -13 66 14 97 32 36 68 43 111 21z m877 -140 c75 -38 123
-116 141 -230 9 -55 8 -57 -12 -52 -11 3 -70 18 -131 34 l-110 30 -92 93 c-51
52 -93 95 -93 97 0 5 50 24 100 39 74 21 140 17 197 -11z m-623 -5 l55 -21
-97 -96 -97 -97 -105 -27 c-58 -16 -115 -31 -127 -35 -20 -6 -23 -3 -22 22 1
16 4 42 8 58 l6 29 75 -2 c69 -2 79 1 130 31 45 27 60 43 85 95 16 34 31 62
32 62 1 1 27 -8 57 -19z m239 -150 l42 -39 -95 0 -95 0 45 39 c25 22 49 40 53
40 4 0 27 -18 50 -40z m165 -196 c27 -6 44 -21 87 -83 55 -77 185 -320 185
-346 0 -27 -119 -251 -179 -337 -59 -84 -63 -87 -109 -95 -62 -10 -322 -10
-392 0 -54 8 -56 9 -108 82 -50 69 -142 236 -176 317 -15 36 -15 37 40 150 47
96 126 225 178 291 10 13 37 20 92 27 82 9 325 5 382 -6z m-681 -61 c-33 -59
-90 -153 -93 -150 -2 1 -7 28 -12 60 l-9 57 51 19 c56 22 69 25 63 14z m988
-12 l50 -19 -3 -48 c-6 -80 -14 -80 -64 6 -26 44 -44 80 -40 80 4 0 30 -9 57
-19z m-1220 -178 c10 -43 26 -100 35 -128 16 -47 16 -53 0 -100 -9 -27 -25
-85 -35 -127 -10 -43 -22 -78 -26 -78 -4 0 -30 21 -59 47 -148 133 -148 283 0
416 29 26 55 47 59 47 4 0 16 -35 26 -77z m1479 33 l28 -23 -30 -42 c-64 -88
-64 -199 0 -289 16 -24 29 -45 27 -47 -25 -24 -83 -64 -89 -60 -4 2 -10 23
-14 44 -3 22 -18 77 -32 123 l-26 82 26 85 c14 47 28 100 32 116 13 64 14 64
78 11z m247 -145 c60 -61 23 -156 -61 -156 -84 0 -121 95 -61 156 40 39 82 39
122 0z m-1535 -363 c24 -40 42 -74 40 -75 -2 -2 -29 6 -60 18 -43 16 -56 25
-52 37 2 10 8 36 11 60 4 24 10 41 13 37 3 -3 25 -38 48 -77z m1076 8 l3 -48
-50 -19 c-27 -10 -53 -19 -57 -19 -4 0 14 36 40 80 50 86 58 86 64 6z m-1002
-245 l105 -27 96 -97 97 -96 -55 -21 c-31 -11 -56 -19 -57 -18 -33 80 -67 126
-117 156 -50 30 -60 33 -129 31 l-75 -2 -6 29 c-4 16 -7 42 -8 58 -1 25 2 28
22 22 12 -4 69 -19 127 -35z m1008 -18 c-13 -82 -44 -147 -92 -191 -54 -50
-103 -66 -175 -59 -54 5 -148 31 -164 46 -4 4 36 50 88 102 95 95 96 95 173
114 42 10 93 24 112 31 65 24 68 21 58 -43z m-525 -73 c-23 -22 -46 -40 -50
-40 -4 0 -28 18 -53 40 l-45 39 95 0 95 0 -42 -39z m-472 -149 c48 -48 38
-116 -22 -147 -77 -39 -161 41 -124 119 29 63 98 75 146 28z"/>
<path d="M932 1334 c-87 -43 -141 -145 -126 -239 24 -162 192 -250 341 -181
181 85 171 354 -16 432 -55 23 -139 18 -199 -12z m169 -142 c45 -40 45 -94 0
-134 -28 -25 -39 -29 -70 -24 -69 11 -104 89 -65 144 33 48 91 54 135 14z"/>
</g>
</svg>
